<svg width="202" height="42" viewBox="0 0 202 42" fill="none" xmlns="http://www.w3.org/2000/svg">
<g clip-path="url(#clip0_14_48)">
<path d="M71.004 22.6609C71.004 23.4132 70.8218 24.0671 70.4572 24.6227C70.0926 25.1782 69.5602 25.6065 68.86 25.9074C68.1655 26.2083 67.3206 26.3588 66.3252 26.3588C65.8854 26.3588 65.4543 26.3299 65.0318 26.272C64.6152 26.2141 64.213 26.1302 63.8252 26.0203C63.4433 25.9045 63.0787 25.7627 62.7315 25.5949V23.0949C63.3333 23.3611 63.9583 23.6013 64.6065 23.8154C65.2546 24.0295 65.897 24.1366 66.5336 24.1366C66.9734 24.1366 67.3264 24.0787 67.5926 23.963C67.8646 23.8472 68.0613 23.6881 68.1829 23.4855C68.3044 23.283 68.3652 23.0515 68.3652 22.7911C68.3652 22.4728 68.2581 22.2008 68.044 21.9751C67.8299 21.7494 67.5347 21.5382 67.1586 21.3414C66.7882 21.1447 66.3686 20.9334 65.8999 20.7078C65.6047 20.5689 65.2836 20.401 64.9363 20.2043C64.5891 20.0017 64.2593 19.7558 63.9468 19.4664C63.6343 19.1771 63.3767 18.827 63.1742 18.4161C62.9774 17.9994 62.879 17.5017 62.879 16.923C62.879 16.1649 63.0527 15.5168 63.3999 14.9786C63.7471 14.4404 64.2419 14.0295 64.8843 13.7459C65.5324 13.4566 66.2963 13.3119 67.1759 13.3119C67.8356 13.3119 68.4635 13.39 69.0596 13.5463C69.6615 13.6968 70.2894 13.9167 70.9433 14.206L70.0752 16.298C69.4907 16.0608 68.967 15.8785 68.504 15.7512C68.0411 15.6181 67.5694 15.5515 67.0891 15.5515C66.7535 15.5515 66.467 15.6065 66.2297 15.7164C65.9925 15.8206 65.8131 15.9711 65.6915 16.1678C65.57 16.3588 65.5093 16.5816 65.5093 16.8362C65.5093 17.1372 65.5961 17.3918 65.7697 17.6001C65.9491 17.8027 66.2153 17.9994 66.5683 18.1904C66.9271 18.3814 67.3727 18.6042 67.9051 18.8588C68.5532 19.1655 69.1059 19.4867 69.5631 19.8223C70.026 20.1522 70.3819 20.5428 70.6308 20.9942C70.8796 21.4398 71.004 21.9954 71.004 22.6609Z" fill="black"/>
<path d="M78.695 15.5515C78.18 15.5515 77.7228 15.6528 77.3235 15.8553C76.93 16.0521 76.5972 16.3385 76.3252 16.7147C76.059 17.0909 75.8565 17.5451 75.7176 18.0775C75.5787 18.61 75.5093 19.2089 75.5093 19.8744C75.5093 20.7714 75.6192 21.5382 75.8391 22.1748C76.0648 22.8056 76.412 23.2888 76.8808 23.6244C77.3495 23.9543 77.9543 24.1192 78.695 24.1192C79.2101 24.1192 79.7251 24.0613 80.2402 23.9456C80.761 23.8299 81.3252 23.6649 81.9329 23.4508V25.7078C81.3715 25.9392 80.8189 26.1042 80.2749 26.2025C79.7309 26.3067 79.1204 26.3588 78.4433 26.3588C77.1354 26.3588 76.059 26.0897 75.2141 25.5515C74.375 25.0075 73.7529 24.2494 73.3478 23.2772C72.9427 22.2992 72.7402 21.1591 72.7402 19.8571C72.7402 18.8964 72.8704 18.0168 73.1308 17.2182C73.3912 16.4196 73.7731 15.728 74.2766 15.1435C74.7801 14.559 75.4022 14.1076 76.1429 13.7894C76.8837 13.4711 77.7344 13.3119 78.695 13.3119C79.3258 13.3119 79.9566 13.3929 80.5874 13.555C81.224 13.7112 81.8316 13.9282 82.4103 14.206L81.5422 16.3935C81.0677 16.1678 80.5903 15.9711 80.11 15.8032C79.6296 15.6354 79.158 15.5515 78.695 15.5515Z" fill="black"/>
<path d="M88.3391 13.4942C89.4907 13.4942 90.4398 13.6331 91.1863 13.9109C91.9387 14.1887 92.4971 14.6082 92.8617 15.1696C93.2263 15.7309 93.4086 16.4398 93.4086 17.2963C93.4086 17.875 93.2986 18.3814 93.0787 18.8154C92.8588 19.2494 92.5694 19.6169 92.2106 19.9178C91.8519 20.2187 91.4641 20.4647 91.0475 20.6557L94.7801 26.1852H91.794L88.7645 21.3154H87.3322V26.1852H84.6412V13.4942H88.3391ZM88.1481 15.6991H87.3322V19.1279H88.2002C89.0914 19.1279 89.728 18.9803 90.11 18.6852C90.4977 18.3843 90.6916 17.9444 90.6916 17.3657C90.6916 16.7639 90.4832 16.3356 90.0666 16.081C89.6557 15.8264 89.0162 15.6991 88.1481 15.6991Z" fill="black"/>
<path d="M104.146 26.1852L103.226 23.1644H98.5995L97.6794 26.1852H94.7801L99.2593 13.4421H102.549L107.046 26.1852H104.146ZM102.584 20.9074L101.664 17.956C101.606 17.7593 101.528 17.5075 101.429 17.2008C101.337 16.8883 101.241 16.5729 101.143 16.2546C101.05 15.9306 100.975 15.6499 100.917 15.4126C100.859 15.6499 100.778 15.945 100.674 16.298C100.576 16.6453 100.48 16.9751 100.388 17.2876C100.295 17.6001 100.229 17.8229 100.188 17.956L99.2766 20.9074H102.584Z" fill="black"/>
<path d="M114.025 26.1852L110.969 16.2286H110.891C110.903 16.4659 110.92 16.8247 110.943 17.305C110.972 17.7795 110.998 18.2859 111.021 18.8241C111.045 19.3623 111.056 19.8484 111.056 20.2824V26.1852H108.652V13.4942H112.315L115.318 23.1991H115.37L118.556 13.4942H122.219V26.1852H119.711V20.1782C119.711 19.7789 119.716 19.3189 119.728 18.798C119.745 18.2772 119.766 17.7824 119.789 17.3137C119.812 16.8391 119.829 16.4832 119.841 16.2459H119.763L116.49 26.1852H114.025Z" fill="black"/>
<path d="M125.422 13.4942H129.372C131.062 13.4942 132.341 13.7315 133.209 14.206C134.077 14.6806 134.511 15.5139 134.511 16.706C134.511 17.1863 134.433 17.6204 134.277 18.0081C134.126 18.3958 133.906 18.7141 133.617 18.963C133.328 19.2118 132.975 19.3738 132.558 19.4491V19.5359C132.98 19.6227 133.362 19.7731 133.704 19.9873C134.045 20.1956 134.317 20.5023 134.52 20.9074C134.728 21.3067 134.832 21.8391 134.832 22.5046C134.832 23.2743 134.644 23.934 134.268 24.4838C133.892 25.0336 133.354 25.456 132.653 25.7512C131.959 26.0405 131.131 26.1852 130.171 26.1852H125.422V13.4942ZM128.113 18.5203H129.676C130.457 18.5203 130.998 18.3987 131.299 18.1557C131.6 17.9068 131.751 17.5422 131.751 17.0619C131.751 16.5758 131.571 16.2286 131.212 16.0203C130.859 15.8061 130.298 15.6991 129.528 15.6991H128.113V18.5203ZM128.113 20.6557V23.963H129.867C130.677 23.963 131.241 23.8067 131.56 23.4942C131.878 23.1817 132.037 22.7622 132.037 22.2355C132.037 21.923 131.968 21.6481 131.829 21.4109C131.69 21.1736 131.455 20.9884 131.126 20.8553C130.802 20.7222 130.353 20.6557 129.78 20.6557H128.113Z" fill="black"/>
<path d="M137.367 26.1852V13.4942H140.058V23.963H145.205V26.1852H137.367Z" fill="black"/>
<path d="M154.728 26.1852H147.419V13.4942H154.728V15.6991H150.11V18.4855H154.407V20.6904H150.11V23.963H154.728V26.1852Z" fill="black"/>
<path d="M0 26.1852V13.4942H0.894097V25.3692H6.93576V26.1852H0Z" fill="black"/>
<path d="M16.0503 26.1852H9.11458V13.4942H16.0503V14.3015H10.0087V19.1105H15.7118V19.9178H10.0087V25.3779H16.0503V26.1852Z" fill="black"/>
<path d="M22.2569 26.1852H21.3542V14.3015H17.2396V13.4942H26.3715V14.3015H22.2569V26.1852Z" fill="black"/>
<path d="M31.5799 26.1852H30.6771V14.3015H26.5625V13.4942H35.6944V14.3015H31.5799V26.1852Z" fill="black"/>
<path d="M44.5226 26.1852H37.5868V13.4942H44.5226V14.3015H38.4809V19.1105H44.184V19.9178H38.4809V25.3779H44.5226V26.1852Z" fill="black"/>
<path d="M50.4948 13.4942C51.5017 13.4942 52.3409 13.6042 53.0122 13.8241C53.6892 14.044 54.1985 14.4057 54.5399 14.9091C54.8814 15.4126 55.0521 16.0926 55.0521 16.9491C55.0521 17.5914 54.9335 18.1441 54.6962 18.6071C54.4647 19.0642 54.1435 19.4404 53.7326 19.7355C53.3218 20.0307 52.8472 20.2564 52.309 20.4126L55.7899 26.1852H54.7309L51.4583 20.6644H48.3073V26.1852H47.4132V13.4942H50.4948ZM50.408 14.2841H48.3073V19.8744H50.8333C51.8692 19.8744 52.6765 19.6256 53.2552 19.1279C53.8397 18.6302 54.1319 17.9155 54.1319 16.9838C54.1319 15.9595 53.8252 15.2535 53.2118 14.8657C52.5984 14.478 51.6638 14.2841 50.408 14.2841Z" fill="black"/>
<path d="M161.376 21.5657L180.892 40.799L197.58 24.677" stroke="black" stroke-width="1.13137" stroke-linecap="round" stroke-linejoin="round"/>
<path d="M161.376 27.2226V21.5657H167.033" stroke="black" stroke-width="1.13137" stroke-linecap="round" stroke-linejoin="round"/>
<path d="M200.974 21L181.175 1.48387L164.77 17.3231" stroke="black" stroke-width="1.13137" stroke-linecap="round" stroke-linejoin="round"/>
<path d="M200.974 15.3432V21H195.317" stroke="black" stroke-width="1.13137" stroke-linecap="round" stroke-linejoin="round"/>
</g>
<defs>
<clipPath id="clip0_14_48">
<rect width="202" height="42" fill="white"/>
</clipPath>
</defs>
</svg>
